<?xml version="1.0" encoding="UTF-8" standalone="no"?>
<!-- Created with Inkscape (http://www.inkscape.org/) -->

<svg
   xmlns:dc="http://purl.org/dc/elements/1.1/"
   xmlns:cc="http://creativecommons.org/ns#"
   xmlns:rdf="http://www.w3.org/1999/02/22-rdf-syntax-ns#"
   xmlns:svg="http://www.w3.org/2000/svg"
   xmlns="http://www.w3.org/2000/svg"
   xmlns:sodipodi="http://sodipodi.sourceforge.net/DTD/sodipodi-0.dtd"
   xmlns:inkscape="http://www.inkscape.org/namespaces/inkscape"
   width="1240"
   height="400"
   viewBox="0 0 600.00001 0"
   id="svg2"
   version="1.1"
   inkscape:version="0.91 r13725"
   sodipodi:docname="default_recipe.svg"
   inkscape:export-filename="/Users/aatina/Desktop/default_recipe.png"
   inkscape:export-xdpi="90"
   inkscape:export-ydpi="90">
  <defs
     id="defs4" />
  <sodipodi:namedview
     id="base"
     pagecolor="#cccccc"
     bordercolor="#666666"
     borderopacity="1.0"
     inkscape:pageopacity="1"
     inkscape:pageshadow="2"
     inkscape:zoom="0.98994949"
     inkscape:cx="583.55788"
     inkscape:cy="236.4709"
     inkscape:document-units="px"
     inkscape:current-layer="layer1"
     showgrid="false"
     units="px"
     inkscape:window-width="1440"
     inkscape:window-height="775"
     inkscape:window-x="0"
     inkscape:window-y="1"
     inkscape:window-maximized="1" />
  <metadata
     id="metadata7">
    <rdf:RDF>
      <cc:Work
         rdf:about="">
        <dc:format>image/svg+xml</dc:format>
        <dc:type
           rdf:resource="http://purl.org/dc/dcmitype/StillImage" />
        <dc:title></dc:title>
      </cc:Work>
    </rdf:RDF>
  </metadata>
  <g
     inkscape:label="Layer 1"
     inkscape:groupmode="layer"
     id="layer1"
     transform="translate(0,-852.3622)">
    <ellipse
       style="opacity:1;fill:#a9a9a9;fill-opacity:1;stroke:none;stroke-width:2.9649868;stroke-miterlimit:4;stroke-dasharray:none"
       id="path4157"
       cx="620"
       cy="1055.2192"
       rx="90.361504"
       ry="92.479347" />
    <ellipse
       ry="81.321228"
       rx="79.458923"
       cy="1055.2192"
       cx="620"
       id="ellipse4159"
       style="opacity:1;fill:none;fill-opacity:1;stroke:#cccccc;stroke-width:5.27539301;stroke-miterlimit:4;stroke-dasharray:none" />
    <circle
       style="opacity:1;fill:#cccccc;fill-opacity:1;stroke:none;stroke-width:5;stroke-miterlimit:4;stroke-dasharray:none"
       id="path4163"
       cx="970.87628"
       cy="769.09662"
       r="35.714291"
       transform="matrix(0.92683139,0.3754778,-0.3754778,0.92683139,0,0)" />
    <rect
       style="opacity:1;fill:#cccccc;fill-opacity:1;stroke:none;stroke-width:5;stroke-miterlimit:4;stroke-dasharray:none"
       id="rect4167"
       width="57.64558"
       height="50.724644"
       x="942.0332"
       y="703.43835"
       transform="matrix(0.92683139,0.3754778,-0.3754778,0.92683139,0,0)" />
    <circle
       style="opacity:1;fill:#cccccc;fill-opacity:1;stroke:none;stroke-width:5;stroke-miterlimit:4;stroke-dasharray:none"
       id="path4173"
       cx="947.02283"
       cy="704.81079"
       r="15.122552"
       transform="matrix(0.92683139,0.3754778,-0.3754778,0.92683139,0,0)" />
    <circle
       r="15.122552"
       cy="705.31586"
       cx="993.67346"
       id="circle4175"
       style="opacity:1;fill:#cccccc;fill-opacity:1;stroke:none;stroke-width:5;stroke-miterlimit:4;stroke-dasharray:none"
       transform="matrix(0.92683139,0.3754778,-0.3754778,0.92683139,0,0)" />
    <circle
       style="opacity:1;fill:#cccccc;fill-opacity:1;stroke:none;stroke-width:5;stroke-miterlimit:4;stroke-dasharray:none"
       id="circle4177"
       cx="969.46454"
       cy="702.81085"
       r="15.122552"
       transform="matrix(0.92683139,0.3754778,-0.3754778,0.92683139,0,0)" />
    <rect
       style="opacity:1;fill:none;fill-opacity:1;stroke:#a9a9a9;stroke-width:1.76123917;stroke-miterlimit:4;stroke-dasharray:none;stroke-opacity:1"
       id="rect4179"
       width="78.020508"
       height="12.865667"
       x="930.82953"
       y="735.69159"
       transform="matrix(0.92683139,0.3754778,-0.3754778,0.92683139,0,0)" />
    <circle
       style="opacity:1;fill:#a9a9a9;fill-opacity:1;stroke:none;stroke-width:2;stroke-miterlimit:4;stroke-dasharray:none;stroke-opacity:1"
       id="path4183"
       cx="958.34052"
       cy="765.50873"
       r="4.6834364"
       transform="matrix(0.92683139,0.3754778,-0.3754778,0.92683139,0,0)" />
    <circle
       r="4.6834364"
       cy="765.50873"
       cx="983.31885"
       id="circle4185"
       style="opacity:1;fill:#a9a9a9;fill-opacity:1;stroke:none;stroke-width:2;stroke-miterlimit:4;stroke-dasharray:none;stroke-opacity:1"
       transform="matrix(0.92683139,0.3754778,-0.3754778,0.92683139,0,0)" />
    <path
       style="opacity:1;fill:#a9a9a9;fill-opacity:1;stroke:none;stroke-width:2;stroke-miterlimit:4;stroke-dasharray:none;stroke-opacity:1"
       d="m 589.23992,1081.6277 a 18.75,7.5892859 22.053847 0 0 -0.4191,0.6964 18.75,7.5892859 22.053847 0 0 14.52829,14.0747 18.75,7.5892859 22.053847 0 0 20.22789,0.01 18.75,7.5892859 22.053847 0 0 0.19825,-0.7859 l -2.03831,-0.8258 a 16.463415,6.1149826 22.053847 0 1 -17.46528,-0.6713 16.463415,6.1149826 22.053847 0 1 -13.01516,-11.6769 l -2.01658,-0.817 z"
       id="path4189"
       inkscape:connector-curvature="0" />
  </g>
</svg>
