<?xml version="1.0" encoding="UTF-8" standalone="no"?>
<!-- Created with Inkscape (http://www.inkscape.org/) -->

<svg
   xmlns:dc="http://purl.org/dc/elements/1.1/"
   xmlns:cc="http://creativecommons.org/ns#"
   xmlns:rdf="http://www.w3.org/1999/02/22-rdf-syntax-ns#"
   xmlns:svg="http://www.w3.org/2000/svg"
   xmlns="http://www.w3.org/2000/svg"
   xmlns:sodipodi="http://sodipodi.sourceforge.net/DTD/sodipodi-0.dtd"
   xmlns:inkscape="http://www.inkscape.org/namespaces/inkscape"
   width="128"
   height="128"
   viewBox="0 0 128 128"
   id="svg2"
   version="1.1"
   inkscape:version="0.91 r13725"
   sodipodi:docname="logo_new.svg">
  <defs
     id="defs4">
    <inkscape:perspective
       sodipodi:type="inkscape:persp3d"
       inkscape:vp_x="0 : 64 : 1"
       inkscape:vp_y="0 : 1000 : 0"
       inkscape:vp_z="128 : 64 : 1"
       inkscape:persp3d-origin="64 : 42.666667 : 1"
       id="perspective4398" />
  </defs>
  <sodipodi:namedview
     id="base"
     pagecolor="#ffffff"
     bordercolor="#666666"
     borderopacity="1.0"
     inkscape:pageopacity="0.0"
     inkscape:pageshadow="2"
     inkscape:zoom="2.56"
     inkscape:cx="87.313825"
     inkscape:cy="36.754496"
     inkscape:document-units="px"
     inkscape:current-layer="layer1"
     showgrid="false"
     inkscape:window-width="1377"
     inkscape:window-height="853"
     inkscape:window-x="47"
     inkscape:window-y="0"
     inkscape:window-maximized="0"
     units="px"
     showguides="false"
     inkscape:object-nodes="false" />
  <metadata
     id="metadata7">
    <rdf:RDF>
      <cc:Work
         rdf:about="">
        <dc:format>image/svg+xml</dc:format>
        <dc:type
           rdf:resource="http://purl.org/dc/dcmitype/StillImage" />
        <dc:title></dc:title>
      </cc:Work>
    </rdf:RDF>
  </metadata>
  <g
     inkscape:label="Layer 1"
     inkscape:groupmode="layer"
     id="layer1"
     transform="translate(0,-924.36216)">
    <path
       style="opacity:1;fill:#000000;fill-rule:evenodd;stroke:none;stroke-width:1px;stroke-linecap:butt;stroke-linejoin:miter;stroke-opacity:1"
       d="m 120.27114,997.85845 -14.58668,-8.42162 -2.8038,16.83477 z"
       id="path4394"
       inkscape:connector-curvature="0" />
    <path
       style="opacity:1;fill:#000000;fill-rule:evenodd;stroke:none;stroke-width:1px;stroke-linecap:butt;stroke-linejoin:miter;stroke-opacity:1"
       d="m 3.4007312,994.39103 12.8953778,-7.44515 3.251216,13.15292 -16.1465938,-5.70777"
       id="path4392"
       inkscape:connector-curvature="0" />
    <path
       style="color:#000000;font-style:normal;font-variant:normal;font-weight:normal;font-stretch:normal;font-size:medium;line-height:normal;font-family:sans-serif;text-indent:0;text-align:start;text-decoration:none;text-decoration-line:none;text-decoration-style:solid;text-decoration-color:#000000;letter-spacing:normal;word-spacing:normal;text-transform:none;direction:ltr;block-progression:tb;writing-mode:lr-tb;baseline-shift:baseline;text-anchor:start;white-space:normal;clip-rule:nonzero;display:inline;overflow:visible;visibility:visible;opacity:1;isolation:auto;mix-blend-mode:normal;color-interpolation:sRGB;color-interpolation-filters:linearRGB;solid-color:#000000;solid-opacity:1;fill:#000000;fill-opacity:1;fill-rule:nonzero;stroke:none;stroke-width:5;stroke-linecap:butt;stroke-linejoin:miter;stroke-miterlimit:4;stroke-dasharray:none;stroke-dashoffset:0;stroke-opacity:1;color-rendering:auto;image-rendering:auto;shape-rendering:auto;text-rendering:auto;enable-background:accumulate"
       d="M 61.996094 -3.4082031 L 60.740234 -2.6953125 L 59.488281 -1.9824219 L 37.908203 10.275391 L 37.878906 10.294922 C 35.625051 11.383611 33.428434 12.625361 31.318359 14.033203 L 31.3125 14.023438 L 7.5703125 27.507812 L 7.3886719 70.728516 C 7.2528395 72.254396 7.165209 73.79156 7.1601562 75.34375 L 7.1601562 75.347656 L 7.1601562 75.357422 L 7.1601562 75.361328 C 7.1598904 105.34875 31.571127 129.76007 61.558594 129.75977 C 91.54606 129.76007 115.95729 105.34875 115.95703 75.361328 L 115.95703 75.355469 L 115.95703 75.34375 L 115.95703 75.337891 C 115.95103 74.042181 115.88403 72.759654 115.78711 71.490234 L 115.96875 28.259766 L 92.625 14.560547 C 90.422954 13.039598 88.111503 11.684755 85.708984 10.503906 L 61.996094 -3.4082031 z "
       transform="translate(0,924.36216)"
       id="path4333" />
    <path
       style="color:#000000;font-style:normal;font-variant:normal;font-weight:normal;font-stretch:normal;font-size:medium;line-height:normal;font-family:sans-serif;text-indent:0;text-align:start;text-decoration:none;text-decoration-line:none;text-decoration-style:solid;text-decoration-color:#000000;letter-spacing:normal;word-spacing:normal;text-transform:none;direction:ltr;block-progression:tb;writing-mode:lr-tb;baseline-shift:baseline;text-anchor:start;white-space:normal;clip-rule:nonzero;display:inline;overflow:visible;visibility:visible;opacity:1;isolation:auto;mix-blend-mode:normal;color-interpolation:sRGB;color-interpolation-filters:linearRGB;solid-color:#000000;solid-opacity:1;fill:#ffffff;fill-opacity:1;fill-rule:nonzero;stroke:none;stroke-width:5;stroke-linecap:butt;stroke-linejoin:miter;stroke-miterlimit:4;stroke-dasharray:none;stroke-dashoffset:0;stroke-opacity:1;color-rendering:auto;image-rendering:auto;shape-rendering:auto;text-rendering:auto;enable-background:accumulate"
       d="M 61.976562 -0.52148438 L 60.722656 0.19140625 L 39.226562 12.402344 L 39.142578 12.458984 L 39.138672 12.460938 C 36.837826 13.562317 34.606609 14.806845 32.492188 16.234375 L 32.546875 16.197266 L 10.064453 28.966797 L 9.8886719 70.761719 C 9.7480249 72.288399 9.6651471 73.818363 9.6601562 75.351562 L 9.6601562 75.357422 L 9.6601562 75.361328 C 9.6599023 103.99453 32.925369 127.26007 61.558594 127.25977 C 90.191819 127.26007 113.45728 103.99453 113.45703 75.361328 L 113.45703 75.355469 L 113.45703 75.349609 C 113.45103 74.067349 113.38813 72.785313 113.28711 71.507812 L 113.46289 29.6875 L 91.294922 16.679688 C 89.132014 15.178975 86.8593 13.844828 84.494141 12.689453 L 61.976562 -0.52148438 z "
       transform="translate(0,924.36216)"
       id="path4324" />
    <path
       style="opacity:1;fill:#000000"
       d="m 61.979185,926.72607 -21.410156,12.16211 -0.0059,0.004 c -2.313891,1.08625 -4.539978,2.35047 -6.658203,3.78125 l -0.01172,0.008 -21.3125,12.10547 -0.169922,40.34708 c -0.147275,1.52493 -0.223529,3.05588 -0.228516,4.58789 -2.42e-4,27.28213 22.116334,49.39873 49.398438,49.39843 27.282105,3e-4 49.398674,-22.1163 49.398434,-49.39843 -0.006,-1.28948 -0.0629,-2.57823 -0.16993,-3.86328 l 0.16997,-40.38224 -20.980463,-12.31054 c -2.123542,-1.48151 -4.360252,-2.7935 -6.689454,-3.92411 l -0.0059,-0.004 z"
       id="path4314"
       inkscape:connector-curvature="0" />
    <path
       style="opacity:1;fill:#000000"
       d="m 61.558323,934.13818 c -0.795482,0.009 -1.590636,0.0368 -2.384766,0.084 0.79413,-0.0472 1.589284,-0.0752 2.384766,-0.084 z"
       id="path4312" />
    <path
       style="opacity:1;fill:#000000"
       d="m 55.870823,934.52686 c -0.556449,0.0583 -1.111868,0.12598 -1.666016,0.20312 0.554148,-0.0771 1.109567,-0.14486 1.666016,-0.20312 z"
       id="path4310" />
    <path
       style="opacity:1;fill:#000000"
       d="m 50.609104,935.43115 c -0.361572,0.0767 -0.722271,0.15741 -1.082031,0.24219 0.35976,-0.0848 0.720459,-0.16551 1.082031,-0.24219 z"
       id="path4308" />
    <path
       style="opacity:1;fill:#000000"
       d="m 45.484104,936.88818 c -0.17611,0.0576 -0.351894,0.1162 -0.527344,0.17578 0.17545,-0.0596 0.351234,-0.11817 0.527344,-0.17578 z"
       id="path4306" />
    <path
       style="opacity:1;fill:#000000"
       d="m 103.43918,957.396 c 0.0412,0.0709 0.0822,0.14182 0.12304,0.21289 -0.0408,-0.0711 -0.0819,-0.14203 -0.12304,-0.21289 z"
       id="path4304" />
    <path
       style="opacity:1;fill:#000000"
       d="m 103.30428,979.73076 c 0.0383,0.0768 0.0763,0.15392 0.11412,0.2311 -0.0378,-0.0772 -0.0759,-0.15422 -0.11412,-0.2311 z"
       id="path4302"
       inkscape:connector-curvature="0" />
    <path
       style="opacity:1;fill:#000000"
       d="m 105.14487,983.6168 c 0.0435,0.12053 0.0865,0.24136 0.12885,0.3625 -0.0424,-0.12113 -0.0853,-0.24198 -0.12885,-0.3625 z"
       id="path4300"
       inkscape:connector-curvature="0" />
    <path
       style="opacity:1;fill:#000000"
       d="m 106.55293,987.74794 c 0.0409,0.17071 0.0808,0.34185 0.11964,0.51344 -0.0388,-0.1716 -0.0787,-0.34274 -0.11964,-0.51344 z"
       id="path4298"
       inkscape:connector-curvature="0" />
    <path
       style="opacity:1;fill:#000000"
       d="m 107.51556,992.08628 c 0.19454,1.17009 0.3413,2.357 0.43991,3.55791 -0.0986,-1.20092 -0.24537,-2.38782 -0.43991,-3.55791 z"
       id="path4273"
       inkscape:connector-curvature="0" />
    <text
       xml:space="preserve"
       style="font-style:normal;font-weight:normal;font-size:40px;line-height:125%;font-family:sans-serif;letter-spacing:0px;word-spacing:0px;fill:#000000;fill-opacity:1;stroke:none;stroke-width:1px;stroke-linecap:butt;stroke-linejoin:miter;stroke-opacity:1;opacity:1;"
       x="57.803467"
       y="992.53558"
       id="text4336"
       sodipodi:linespacing="125%"><tspan
         sodipodi:role="line"
         id="tspan4338"
         x="57.803467"
         y="992.53558" /></text>
    <path
       style="color:#000000;font-style:normal;font-variant:normal;font-weight:normal;font-stretch:normal;font-size:medium;line-height:normal;font-family:sans-serif;text-indent:0;text-align:start;text-decoration:none;text-decoration-line:none;text-decoration-style:solid;text-decoration-color:#000000;letter-spacing:normal;word-spacing:normal;text-transform:none;direction:ltr;block-progression:tb;writing-mode:lr-tb;baseline-shift:baseline;text-anchor:start;white-space:normal;clip-rule:nonzero;display:inline;overflow:visible;visibility:visible;opacity:1;isolation:auto;mix-blend-mode:normal;color-interpolation:sRGB;color-interpolation-filters:linearRGB;solid-color:#000000;solid-opacity:1;fill:#000000;fill-opacity:1;fill-rule:nonzero;stroke:none;stroke-width:5;stroke-linecap:butt;stroke-linejoin:miter;stroke-miterlimit:4;stroke-dasharray:none;stroke-dashoffset:0;stroke-opacity:1;color-rendering:auto;image-rendering:auto;shape-rendering:auto;text-rendering:auto;enable-background:accumulate"
       d="m 3.4007312,994.39103 0,2.35596 0,24.56831 116.8704088,-23.45685 0,-26.92422 -116.8704088,23.4568 z"
       id="path4389"
       inkscape:connector-curvature="0" />
    <rect
       style="opacity:1;fill:#ffffff;stroke:none;stroke-width:5;stroke-miterlimit:4;stroke-dasharray:none"
       id="rect4344"
       width="114.39474"
       height="22.212217"
       x="5.871304"
       y="997.42853"
       transform="matrix(0.98044701,-0.19678326,0,1,0,0)" />
    <text
       xml:space="preserve"
       style="font-style:normal;font-weight:normal;font-size:55.08630753px;line-height:125%;font-family:sans-serif;letter-spacing:0px;word-spacing:0px;fill:#000000;fill-opacity:1;stroke:none;stroke-width:1px;stroke-linecap:butt;stroke-linejoin:miter;stroke-opacity:1;opacity:1;"
       x="9.5465345"
       y="1016.6996"
       id="text4340"
       sodipodi:linespacing="125%"
       transform="matrix(1,-0.20070769,0,1,0,0)"><tspan
         sodipodi:role="line"
         id="tspan4342"
         x="9.5465345"
         y="1016.6996"
         style="font-style:normal;font-variant:normal;font-weight:normal;font-stretch:condensed;font-size:20.6573658px;line-height:125%;font-family:Impact;-inkscape-font-specification:'Impact, Condensed';text-align:start;writing-mode:lr-tb;text-anchor:start;">LOGO DESIGN</tspan></text>
    <g
       style="font-style:normal;font-weight:normal;font-size:29.449049px;line-height:125%;font-family:sans-serif;letter-spacing:0.23px;word-spacing:0px;fill:#ffffff;fill-opacity:1;stroke:none;stroke-width:1px;stroke-linecap:butt;stroke-linejoin:miter;stroke-opacity:1;opacity:1"
       id="text4400">
      <path
         d="m 36.40605,1039.4493 0.559003,0.3239 3.333278,-3.2092 0.01433,0.01 -1.154598,4.4714 0.551837,0.3197 3.982808,-4.1155 -0.516003,-0.299 -3.21713,3.3722 -0.0072,-0 1.153118,-4.5679 -0.45867,-0.2657 -3.396298,3.2683 -0.0215,-0.012 1.325118,-4.4683 -0.56617,-0.328 -1.58196,5.5064 z"
         style="font-style:normal;font-variant:normal;font-weight:normal;font-stretch:normal;font-size:8.28254509px;line-height:125%;font-family:'.Apple SD Gothic NeoI';-inkscape-font-specification:'.Apple SD Gothic NeoI, Normal';text-align:start;letter-spacing:0.23px;writing-mode:lr-tb;text-anchor:start;fill:#ffffff"
         id="path4408" />
      <path
         d="m 42.0314,1042.4651 0.596576,0.2688 2.282774,-5.0672 -0.596577,-0.2687 -2.282773,5.0671 z"
         style="font-style:normal;font-variant:normal;font-weight:normal;font-stretch:normal;font-size:8.28254509px;line-height:125%;font-family:'.Apple SD Gothic NeoI';-inkscape-font-specification:'.Apple SD Gothic NeoI, Normal';text-align:start;letter-spacing:0.23px;writing-mode:lr-tb;text-anchor:start;fill:#ffffff"
         id="path4410" />
      <path
         d="m 45.286323,1043.8125 0.60733,0.2203 1.705632,-4.7029 1.596187,0.5789 0.189201,-0.5217 -3.799705,-1.3781 -0.189201,0.5217 1.596188,0.5789 -1.705632,4.7029 z"
         style="font-style:normal;font-variant:normal;font-weight:normal;font-stretch:normal;font-size:8.28254509px;line-height:125%;font-family:'.Apple SD Gothic NeoI';-inkscape-font-specification:'.Apple SD Gothic NeoI, Normal';text-align:start;letter-spacing:0.23px;writing-mode:lr-tb;text-anchor:start;fill:#ffffff"
         id="path4412" />
      <path
         d="m 48.571999,1044.9388 0.644192,0.1551 0.606892,-2.5204 2.705604,0.6515 -0.606893,2.5204 0.636139,0.1532 1.301039,-5.4032 -0.636139,-0.1532 -0.564236,2.3433 -2.705604,-0.6515 0.564236,-2.3433 -0.644191,-0.1551 -1.301039,5.4032 z"
         style="font-style:normal;font-variant:normal;font-weight:normal;font-stretch:normal;font-size:8.28254509px;line-height:125%;font-family:'.Apple SD Gothic NeoI';-inkscape-font-specification:'.Apple SD Gothic NeoI, Normal';text-align:start;letter-spacing:0.23px;writing-mode:lr-tb;text-anchor:start;fill:#ffffff"
         id="path4414" />
      <path
         d="m 56.583248,1046.4587 0.651132,0.065 0.548046,-5.5305 -0.651131,-0.064 -0.548047,5.5305 z"
         style="font-style:normal;font-variant:normal;font-weight:normal;font-stretch:normal;font-size:8.28254509px;line-height:125%;font-family:'.Apple SD Gothic NeoI';-inkscape-font-specification:'.Apple SD Gothic NeoI, Normal';text-align:start;letter-spacing:0.23px;writing-mode:lr-tb;text-anchor:start;fill:#ffffff"
         id="path4416" />
      <path
         d="m 58.876764,1046.6886 0.612856,0.01 0.06108,-4.6627 0.02484,4e-4 2.696769,4.6988 0.67911,0.01 0.0728,-5.5571 -0.596292,-0.01 -0.05826,4.4474 -0.02485,-3e-4 -2.616771,-4.4824 -0.778493,-0.01 -0.0728,5.5571 z"
         style="font-style:normal;font-variant:normal;font-weight:normal;font-stretch:normal;font-size:8.28254509px;line-height:125%;font-family:'.Apple SD Gothic NeoI';-inkscape-font-specification:'.Apple SD Gothic NeoI, Normal';text-align:start;letter-spacing:0.23px;writing-mode:lr-tb;text-anchor:start;fill:#ffffff"
         id="path4418" />
      <path
         d="m 67.698854,1046.337 0.766375,-0.077 -2.631755,-2.6478 1.974157,-2.8717 -0.700449,0.071 -2.033421,2.9443 2.625093,2.5818 z m -3.1067,0.3139 0.651006,-0.066 -0.55871,-5.5294 -0.651007,0.066 0.558711,5.5294 z"
         style="font-style:normal;font-variant:normal;font-weight:normal;font-stretch:normal;font-size:8.28254509px;line-height:125%;font-family:'.Apple SD Gothic NeoI';-inkscape-font-specification:'.Apple SD Gothic NeoI, Normal';text-align:start;letter-spacing:0.23px;writing-mode:lr-tb;text-anchor:start;fill:#ffffff"
         id="path4420" />
      <path
         d="m 70.768649,1045.9096 c 1.274403,-0.2585 1.697938,-1.0036 1.505284,-1.9533 -0.186067,-0.9173 -0.76661,-1.1545 -1.626199,-1.2674 l -0.570315,-0.062 c -0.659721,-0.086 -0.900639,-0.2737 -1.006023,-0.7932 -0.105383,-0.5195 0.202144,-0.9199 0.867756,-1.0549 0.600674,-0.1219 1.062172,-0.055 1.408383,0.027 l -0.110323,-0.5439 c -0.329977,-0.085 -0.742771,-0.162 -1.384032,-0.032 -1.13641,0.2305 -1.574648,0.9448 -1.4034,1.789 0.167954,0.8279 0.677204,1.1303 1.491268,1.2271 l 0.565491,0.08 c 0.700307,0.078 1.01428,0.2506 1.127897,0.8107 0.120202,0.5926 -0.166035,1.0563 -1.002108,1.2259 -0.576322,0.1169 -1.141698,0.08 -1.598488,-0.048 l 0.110323,0.5439 c 0.40644,0.1288 0.958875,0.1857 1.624486,0.051 z"
         style="font-style:normal;font-variant:normal;font-weight:normal;font-stretch:normal;font-size:8.28254509px;line-height:125%;font-family:'.Apple SD Gothic NeoI';-inkscape-font-specification:'.Apple SD Gothic NeoI, Normal';text-align:start;letter-spacing:0.23px;writing-mode:lr-tb;text-anchor:start;fill:#ffffff"
         id="path4422" />
      <path
         d="m 75.895063,1044.5818 c 0.625402,-0.1924 1.064474,-0.4834 1.357401,-0.7988 l -0.163155,-0.5304 c -0.281353,0.2685 -0.621169,0.5723 -1.278236,0.7744 -1.219138,0.3751 -1.969307,-0.2607 -2.388153,-1.6224 l -0.08036,-0.2612 c -0.433457,-1.4092 0.09395,-2.23 1.099347,-2.5392 0.522488,-0.1608 0.954839,-0.1638 1.42555,-0.1266 l -0.16072,-0.5225 c -0.378149,-0.074 -0.826333,-0.066 -1.396319,0.1089 -1.353717,0.4164 -2.185621,1.4869 -1.601185,3.3868 l 0.0487,0.1584 c 0.552779,1.797 1.704245,2.4134 3.137127,1.9726 z"
         style="font-style:normal;font-variant:normal;font-weight:normal;font-stretch:normal;font-size:8.28254509px;line-height:125%;font-family:'.Apple SD Gothic NeoI';-inkscape-font-specification:'.Apple SD Gothic NeoI, Normal';text-align:start;letter-spacing:0.23px;writing-mode:lr-tb;text-anchor:start;fill:#ffffff"
         id="path4424" />
      <path
         d="m 78.016135,1043.8138 0.578345,-0.2485 -0.115804,-1.7171 2.047035,-0.8796 1.181175,1.2594 0.631614,-0.2714 -4.058433,-4.3051 -0.585954,0.2518 0.322022,5.9105 z m 0.26809,-5.2085 0.01522,-0.01 1.816946,1.9418 -1.681765,0.7226 -0.1504,-2.6578 z"
         style="font-style:normal;font-variant:normal;font-weight:normal;font-stretch:normal;font-size:8.28254509px;line-height:125%;font-family:'.Apple SD Gothic NeoI';-inkscape-font-specification:'.Apple SD Gothic NeoI, Normal';text-align:start;letter-spacing:0.23px;writing-mode:lr-tb;text-anchor:start;fill:#ffffff"
         id="path4426" />
      <path
         d="m 83.271969,1041.4495 0.577581,-0.3247 -1.091875,-1.9421 0.989108,-0.5561 c 0.924129,-0.5196 1.25278,-1.3885 0.71699,-2.3415 -0.511436,-0.9097 -1.330728,-1.1332 -2.420912,-0.5203 l -1.49449,0.8402 2.723598,4.8445 z m -0.782189,-2.7433 -1.091875,-1.9422 0.859152,-0.483 c 0.786954,-0.4424 1.227725,-0.3006 1.613331,0.3852 0.365311,0.6498 0.243839,1.1267 -0.507017,1.5488 l -0.873591,0.4912 z"
         style="font-style:normal;font-variant:normal;font-weight:normal;font-stretch:normal;font-size:8.28254509px;line-height:125%;font-family:'.Apple SD Gothic NeoI';-inkscape-font-specification:'.Apple SD Gothic NeoI, Normal';text-align:start;letter-spacing:0.23px;writing-mode:lr-tb;text-anchor:start;fill:#ffffff"
         id="path4428" />
      <path
         d="m 87.398213,1039.0336 2.714394,-1.9139 -0.319783,-0.4535 -2.179638,1.5368 -1.169355,-1.6584 1.665189,-1.1741 -0.319783,-0.4535 -1.665189,1.1741 -1.073897,-1.5231 2.15933,-1.5225 -0.319783,-0.4535 -2.694086,1.8996 3.202601,4.542 z"
         style="font-style:normal;font-variant:normal;font-weight:normal;font-stretch:normal;font-size:8.28254509px;line-height:125%;font-family:'.Apple SD Gothic NeoI';-inkscape-font-specification:'.Apple SD Gothic NeoI, Normal';text-align:start;letter-spacing:0.23px;writing-mode:lr-tb;text-anchor:start;fill:#ffffff"
         id="path4430" />
    </g>
    <path
       sodipodi:type="star"
       style="opacity:1;fill:#ffffff;stroke:none;stroke-width:10;stroke-miterlimit:4;stroke-dasharray:none"
       id="path4432"
       sodipodi:sides="5"
       sodipodi:cx="59.204952"
       sodipodi:cy="990.11505"
       sodipodi:r1="40.157387"
       sodipodi:r2="15.059019"
       sodipodi:arg1="0.93428811"
       sodipodi:arg2="1.5626066"
       inkscape:flatsided="false"
       inkscape:rounded="0"
       inkscape:randomized="0"
       d="m 83.074144,1022.4087 -23.745864,-17.2351 -23.460392,17.6217 9.053677,-27.90962 -24.008904,-16.86675 29.341344,-0.014 8.622075,-28.04594 9.08027,27.90096 29.337639,-0.46659 -23.729428,17.25772 z"
       inkscape:transform-center-x="-0.0017868713"
       inkscape:transform-center-y="-0.66187685"
       transform="matrix(0.17303679,0.00156081,-0.00156081,0.17303679,53.134455,852.628)" />
    <path
       style="fill:#ffffff"
       d="m 58.352738,980.36174 c 0.071,-0.0135 0.473586,-0.10668 0.894627,-0.20784 0.815913,-0.1959 0.885036,-0.2395 0.75303,-0.47468 -0.115138,-0.20513 -0.328546,-0.29951 -1.186026,-0.52455 -0.438509,-0.11507 -0.897821,-0.25787 -1.020695,-0.31731 -0.569134,-0.27533 -0.432996,-0.96459 0.237224,-1.20106 0.120994,-0.0427 0.628107,-0.13753 1.126924,-0.21075 1.022818,-0.15016 1.176875,-0.19934 1.734551,-0.55374 0.890442,-0.56586 1.022758,-0.99425 0.444096,-1.43776 -0.410306,-0.31448 -0.608315,-0.52913 -0.608315,-0.65943 0,-0.14389 -0.05533,-0.14614 1.006968,0.041 0.419726,0.0739 0.844615,0.10973 1.316806,0.11099 1.078989,0.003 1.640432,-0.14261 2.94246,-0.76248 l 0.696152,-0.33143 0.362457,0.18145 c 0.199357,0.0998 0.513509,0.31257 0.69812,0.47282 0.378665,0.3287 2.520203,1.9351 3.692218,2.7696 1.020877,0.72688 1.289629,0.97408 1.682363,1.54749 0.653124,0.95359 0.83896,1.07733 1.6742,1.11481 1.258078,0.0566 2.408252,-0.45469 2.603193,-1.15677 0.06924,-0.24939 0.06928,-0.30634 4.13e-4,-0.55445 -0.130495,-0.46988 -0.66041,-0.82129 -1.958113,-1.29849 -0.943628,-0.34699 -1.466883,-0.61956 -1.776391,-0.92532 -0.822242,-0.81229 -1.770678,-2.06961 -1.999521,-2.65071 -0.133569,-0.33917 -0.172865,-1.14509 -0.06129,-1.2569 0.04775,-0.0478 0.186967,-0.0348 0.619673,0.058 0.708658,0.15199 1.5036,0.16447 1.952359,0.0307 0.734552,-0.21904 1.121119,-0.6349 1.398123,-1.50408 0.06336,-0.19881 0.147176,-0.368 0.186254,-0.37597 0.11414,-0.0233 0.385475,0.27951 0.649343,0.72463 0.318174,0.53673 0.714446,0.87729 2.052353,1.76383 1.197146,0.79327 1.572006,1.09248 1.966678,1.56981 0.404865,0.48965 0.616875,0.95462 0.74623,1.63656 0.212391,1.1197 0.376039,1.4257 0.89223,1.66834 0.341081,0.16033 0.620552,0.21389 1.11987,0.21462 0.927346,10e-4 1.588074,-0.34765 1.762925,-0.93124 0.151426,-0.50542 -0.132463,-0.94296 -1.17434,-1.8099 -0.750707,-0.62467 -0.96719,-0.84663 -1.882663,-1.93035 -0.776686,-0.91942 -1.110955,-1.45963 -1.8884,-3.05185 -0.59222,-1.21287 -0.767968,-1.63203 -1.111039,-2.64985 -0.224145,-0.665 -0.494259,-1.36976 -0.600253,-1.56614 -0.296771,-0.54985 -0.657122,-0.91507 -1.297332,-1.31486 -0.01111,-0.007 0.04133,-0.19876 0.11653,-0.42628 0.179024,-0.54167 0.248213,-1.22698 0.18757,-1.85785 -0.05446,-0.56655 -0.109703,-0.86313 -0.433442,-2.32704 -0.310265,-1.40299 -0.31842,-1.50039 -0.188071,-2.24631 0.334325,-1.91317 0.101306,-3.51315 -0.720345,-4.94611 -0.249211,-0.43463 -0.256812,-0.4593 -0.184565,-0.59901 0.112021,-0.21662 0.375011,-0.42656 0.91432,-0.72985 0.265711,-0.14943 0.581841,-0.33928 0.702511,-0.42191 0.358983,-0.24579 0.4794,-0.60844 0.271174,-0.81666 -0.139933,-0.13994 -0.306684,-0.13033 -0.880419,0.0507 -0.487049,0.1537 -0.690913,0.18373 -0.845278,0.12449 -0.146895,-0.0563 -0.08378,-0.14582 0.268519,-0.38056 0.469903,-0.31311 1.274792,-1.12465 1.610112,-1.6234 1.154568,-1.71733 1.305521,-3.67565 0.362213,-4.69901 -0.110739,-0.12014 -0.319359,-0.28267 -0.463601,-0.36117 l -0.262256,-0.14274 0.02792,0.12054 c 0.01535,0.0663 0.07521,0.31806 0.133005,0.55948 0.138941,0.58034 0.187072,1.44426 0.10406,1.86785 -0.127313,0.64964 -0.495641,1.19036 -1.082168,1.58867 -0.431822,0.29324 -1.721823,0.92413 -1.813985,0.88714 -0.04355,-0.0175 -0.254362,-0.14198 -0.468483,-0.27668 -0.214122,-0.1347 -0.518857,-0.28948 -0.677192,-0.34396 -0.820848,-0.28241 -1.897646,-0.27586 -3.319422,0.0201 -0.942696,0.1963 -0.936705,0.19625 -1.803175,0.0161 -0.878587,-0.18262 -1.544784,-0.0369 -2.42974,0.53159 l -0.411599,0.2644 -0.311355,-0.10978 c -0.171241,-0.0604 -0.578588,-0.14418 -0.905207,-0.18623 -0.809565,-0.10424 -1.044888,-0.15803 -1.335473,-0.30529 -0.311442,-0.15781 -0.547743,-0.42395 -0.738656,-0.83192 -0.254234,-0.54328 -0.310836,-0.91667 -0.338554,-2.23311 -0.02224,-1.05609 -0.03464,-1.19465 -0.10205,-1.13872 -0.13109,0.10879 -0.684561,1.2674 -0.880812,1.84384 -0.168599,0.49522 -0.187199,0.60448 -0.190137,1.11695 -0.0027,0.48081 0.01422,0.60583 0.110434,0.81424 0.186525,0.40393 0.539925,0.69832 1.311603,1.09257 0.380559,0.19442 0.767466,0.40964 0.859806,0.47827 0.317473,0.23595 0.407306,0.59983 0.232243,0.94074 -0.06443,0.12549 -0.201142,0.23818 -0.477588,0.39373 -0.452317,0.25451 -0.53252,0.38706 -0.401033,0.6628 0.12121,0.25418 0.426763,0.37876 1.286966,0.52476 1.277739,0.21687 1.414105,0.32425 1.653675,1.30223 0.152998,0.62456 0.152095,1.5728 -0.002,2.15625 -0.400978,1.51774 -1.769474,3.05348 -3.07977,3.45615 -1.025305,0.31508 -1.721787,0.77897 -3.235969,2.15528 -0.520753,0.47335 -1.116485,0.99876 -1.323841,1.1676 l -0.377014,0.30699 -0.526677,0.035 c -1.719166,0.11426 -2.974066,0.49108 -5.79789,1.74098 -0.570232,0.2524 -1.067708,0.45891 -1.105494,0.45891 -0.172562,0 -2.109456,-1.27091 -2.742854,-1.79974 -0.727947,-0.60778 -0.972935,-1.0252 -0.806519,-1.37417 0.178075,-0.37343 0.800144,-0.58144 2.630162,-0.87947 1.986164,-0.32348 2.624514,-0.48561 3.308604,-0.84031 1.017433,-0.52755 1.198143,-1.45539 0.479583,-2.46237 -0.280361,-0.39289 -0.686064,-0.73875 -1.648445,-1.40527 -1.164522,-0.80653 -1.672114,-1.25189 -1.884578,-1.65352 -0.09571,-0.18094 -0.06943,-0.64075 0.06937,-1.21363 0.15686,-0.64747 0.163565,-0.95987 0.02635,-1.2288 -0.136286,-0.26714 -0.382978,-0.44744 -0.820321,-0.59952 -0.344686,-0.11987 -0.987532,-0.22407 -0.987532,-0.16006 0,0.0168 0.03545,0.16541 0.07875,0.3301 0.11896,0.45227 0.04374,0.68744 -0.418493,1.30854 -0.670604,0.90108 -0.825267,1.35044 -0.781288,2.27001 0.03518,0.73613 0.06153,0.78937 0.48666,0.98395 0.639314,0.29261 1.328114,0.55355 2.420123,0.91681 1.329044,0.44211 1.603967,0.56282 1.896931,0.83285 0.289749,0.26709 0.3776,0.55375 0.293637,0.95817 -0.03093,0.14898 -0.08427,0.3091 -0.118528,0.35582 -0.04764,0.065 -0.395917,0.13401 -1.482386,0.29384 -2.675375,0.39356 -3.693496,0.69204 -4.338451,1.27191 -1.01866,0.91586 -0.308268,2.33157 2.156691,4.298 0.404718,0.32286 0.735859,0.60728 0.735859,0.63203 0,0.12186 -0.49819,0.55679 -1.115636,0.97398 -1.396604,0.94363 -1.861389,1.41416 -2.344571,2.37359 -0.09295,0.18457 -0.321861,0.53134 -0.508683,0.77059 -0.186822,0.23925 -0.690956,0.95965 -1.1203,1.60089 -0.747565,1.11651 -0.793559,1.17315 -1.086092,1.33759 -1.178997,0.66273 -1.756837,1.6241 -2.163948,3.60022 -0.07512,0.36466 -0.161335,0.71086 -0.19158,0.76932 -0.07669,0.14825 -0.317811,0.44118 -0.939745,1.14168 -0.832236,0.93736 -1.057788,1.40589 -0.911643,1.89369 0.135592,0.45254 0.421472,0.55531 1.250695,0.44965 0.85215,-0.10857 0.87323,-0.14136 1.075694,-1.67282 0.02992,-0.22622 0.08679,-0.46078 0.126406,-0.52124 0.03963,-0.0605 0.198757,-0.17193 0.353656,-0.24772 0.410784,-0.20098 0.698504,-0.54142 1.064803,-1.25989 0.18724,-0.36725 0.388672,-0.68707 0.487293,-0.77365 0.104753,-0.092 0.410325,-0.23183 0.810839,-0.37111 0.790116,-0.27476 1.447329,-0.5777 2.195157,-1.01185 0.916623,-0.53215 1.11722,-0.61002 1.636308,-0.63528 0.600288,-0.0292 0.606286,-0.0232 0.608557,0.60374 0.002,0.57282 0.101694,1.20157 0.230809,1.45673 0.301718,0.59628 0.684123,0.58992 1.497314,-0.0249 0.198811,-0.15031 0.389319,-0.28912 0.423359,-0.30846 0.03814,-0.0217 0.144021,0.076 0.275751,0.25432 0.536961,0.72686 1.19342,0.79147 1.809322,0.17809 0.129964,-0.12944 0.316908,-0.37328 0.415421,-0.54188 0.218671,-0.37423 0.313618,-0.40439 1.184469,-0.37622 0.563681,0.0183 0.61963,0.0301 1.006968,0.21361 0.614723,0.29124 0.900698,0.60492 0.900698,0.98797 0,0.39885 -0.261586,0.70094 -1.325567,1.53084 -0.482083,0.37602 -0.59371,0.49093 -0.712198,0.73311 -0.153894,0.31455 -0.148847,0.46632 0.02709,0.81399 0.294843,0.58265 0.982201,0.85546 2.862729,1.13621 1.078847,0.16107 1.690174,0.21424 1.936482,0.16848 z"
       id="path4507"
       inkscape:connector-curvature="0" />
  </g>
</svg>
