<?xml version="1.0" encoding="UTF-8" standalone="no"?>
<!-- Created with Inkscape (http://www.inkscape.org/) -->

<svg
   xmlns:dc="http://purl.org/dc/elements/1.1/"
   xmlns:cc="http://creativecommons.org/ns#"
   xmlns:rdf="http://www.w3.org/1999/02/22-rdf-syntax-ns#"
   xmlns:svg="http://www.w3.org/2000/svg"
   xmlns="http://www.w3.org/2000/svg"
   xmlns:sodipodi="http://sodipodi.sourceforge.net/DTD/sodipodi-0.dtd"
   xmlns:inkscape="http://www.inkscape.org/namespaces/inkscape"
   width="449.07819"
   height="391.67032"
   viewBox="0 0 449.0782 391.67033"
   id="svg4517"
   version="1.1"
   inkscape:version="0.91 r13725"
   sodipodi:docname="logo.svg">
  <defs
     id="defs4519">
    <inkscape:path-effect
       effect="spiro"
       id="path-effect4242"
       is_visible="true" />
    <inkscape:path-effect
       effect="spiro"
       id="path-effect4238"
       is_visible="true" />
    <inkscape:path-effect
       effect="spiro"
       id="path-effect4234"
       is_visible="true" />
    <inkscape:path-effect
       effect="spiro"
       id="path-effect4230"
       is_visible="true" />
    <inkscape:path-effect
       effect="spiro"
       id="path-effect4226"
       is_visible="true" />
    <inkscape:path-effect
       effect="spiro"
       id="path-effect4222"
       is_visible="true" />
    <inkscape:path-effect
       effect="spiro"
       id="path-effect4218"
       is_visible="true" />
    <inkscape:path-effect
       effect="spiro"
       id="path-effect4214"
       is_visible="true" />
    <inkscape:path-effect
       effect="spiro"
       id="path-effect4210"
       is_visible="true" />
    <inkscape:path-effect
       effect="spiro"
       id="path-effect4206"
       is_visible="true" />
    <inkscape:path-effect
       effect="spiro"
       id="path-effect4202"
       is_visible="true" />
  </defs>
  <sodipodi:namedview
     id="base"
     pagecolor="#ffffff"
     bordercolor="#666666"
     borderopacity="1.0"
     inkscape:pageopacity="0.0"
     inkscape:pageshadow="2"
     inkscape:zoom="1"
     inkscape:cx="99.85779"
     inkscape:cy="172.38062"
     inkscape:document-units="px"
     inkscape:current-layer="layer1"
     showgrid="false"
     inkscape:window-width="1386"
     inkscape:window-height="794"
     inkscape:window-x="60"
     inkscape:window-y="39"
     inkscape:window-maximized="0"
     units="px"
     inkscape:object-paths="false"
     inkscape:object-nodes="true"
     inkscape:snap-smooth-nodes="false"
     inkscape:snap-global="false"
     fit-margin-top="1"
     fit-margin-left="1"
     fit-margin-right="1"
     fit-margin-bottom="1" />
  <metadata
     id="metadata4522">
    <rdf:RDF>
      <cc:Work
         rdf:about="">
        <dc:format>image/svg+xml</dc:format>
        <dc:type
           rdf:resource="http://purl.org/dc/dcmitype/StillImage" />
        <dc:title />
      </cc:Work>
    </rdf:RDF>
  </metadata>
  <g
     inkscape:label="Layer 1"
     inkscape:groupmode="layer"
     id="layer1"
     transform="translate(-18.137937,-559.80783)">
    <path
       style="fill:#ffd42a;fill-rule:evenodd;stroke:none;stroke-width:1.45600998px;stroke-linecap:butt;stroke-linejoin:miter;stroke-opacity:1"
       d="m 74.331972,566.4975 c -3.465178,0.26339 -7.457338,2.64983 -12.153733,7.58922 -42.938441,45.16006 141.808511,330.4007 141.808511,330.4007 0,0 2.78845,-101.47692 -55.94699,-154.39093 C 95.728474,702.96994 102.54839,564.35263 74.331972,566.4975 Z m -0.562415,17.45556 a 9.3117757,11.174131 0 0 1 9.310773,11.17638 9.3117757,11.174131 0 0 1 -9.310773,11.17293 9.3117757,11.174131 0 0 1 -9.310791,-11.17293 9.3117757,11.174131 0 0 1 9.310791,-11.17638 z"
       id="path4615"
       inkscape:connector-curvature="0" />
    <path
       style="fill:#ff8080;fill-rule:evenodd;stroke:none;stroke-width:1px;stroke-linecap:butt;stroke-linejoin:miter;stroke-opacity:1"
       d="m 404.76885,702.23503 c -188.93942,20.37927 -209.49589,1.08733 -323.979617,10.00955 -29.849369,3.51169 9.610707,182.90048 30.680847,202.21478 21.07015,19.3143 227.63028,14.5625 245.18873,5.66244 38.66489,-19.5985 90.38812,-218.56869 48.11004,-217.88677 z"
       id="path4567"
       inkscape:connector-curvature="0"
       sodipodi:nodetypes="ccssc" />
    <path
       style="fill:#d35f5f;fill-rule:evenodd;stroke:none;stroke-width:1px;stroke-linecap:butt;stroke-linejoin:miter;stroke-opacity:1"
       d="m 389.24533,773.09931 c 0,0 -63.30516,113.17274 -112.98285,127.88172 -46.56596,13.78764 55.90229,1.15823 65.8032,4.96627 0,0 67.04479,-67.04477 47.17965,-132.84799 z"
       id="path5163"
       inkscape:connector-curvature="0"
       sodipodi:nodetypes="cssc" />
    <path
       style="fill:#ff7f2a;fill-rule:evenodd;stroke:none;stroke-width:0.85094935px;stroke-linecap:butt;stroke-linejoin:miter;stroke-opacity:1"
       d="m 210.00989,950.24524 c 0,0 -29.93704,-0.84844 -34.83704,-32.96935 -4.89998,-32.1209 -2.95705,-32.04061 -2.95705,-32.04061 0,0 35.55994,15.4831 42.80448,37.96975 7.24455,22.48665 -5.01039,27.04021 -5.01039,27.04021 z"
       id="path5170"
       inkscape:connector-curvature="0"
       sodipodi:nodetypes="cscsc" />
    <path
       sodipodi:nodetypes="cscsc"
       inkscape:connector-curvature="0"
       id="path5172"
       d="m 319.08447,950.43747 c 0,0 28.75276,2.31217 36.79685,-27.93167 8.04411,-30.24378 6.17538,-30.3697 6.17538,-30.3697 0,0 -35.66398,11.11343 -44.94743,31.88791 -9.28343,20.77448 1.9752,26.41346 1.9752,26.41346 z"
       style="fill:#ff4600;fill-opacity:1;fill-rule:evenodd;stroke:none;stroke-width:0.81959569px;stroke-linecap:butt;stroke-linejoin:miter;stroke-opacity:1" />
    <path
       style="fill:#ff6600;fill-rule:evenodd;stroke:none;stroke-width:0.8696757px;stroke-linecap:butt;stroke-linejoin:miter;stroke-opacity:1"
       d="m 226.56244,948.4094 c 0,0 -11.02581,-34.09251 12.74779,-50.35257 23.77363,-16.26004 22.49555,-8.17564 22.49555,-8.17564 0,0 7.90036,25.43137 -6.29107,44.74029 -14.19142,19.30893 -28.20184,14.60372 -28.20184,14.60372 z"
       id="path5174"
       inkscape:connector-curvature="0"
       sodipodi:nodetypes="cscscc" />
    <path
       sodipodi:nodetypes="cscscc"
       inkscape:connector-curvature="0"
       id="path5176"
       d="m 308.86941,891.57643 c 0,0 8.97839,34.68799 -15.7203,49.50514 -24.69868,14.81716 -22.94201,6.82308 -22.94201,6.82308 0,0 -6.37367,-25.85625 8.94118,-44.28685 15.3148,-18.43061 29.02056,-12.90037 29.02056,-12.90037 z"
       style="fill:#ff9900;fill-opacity:1;fill-rule:evenodd;stroke:none;stroke-width:0.8696757px;stroke-linecap:butt;stroke-linejoin:miter;stroke-opacity:1" />
    <path
       style="fill:#ff3e00;fill-opacity:1;fill-rule:evenodd;stroke:none;stroke-width:1px;stroke-linecap:butt;stroke-linejoin:miter;stroke-opacity:1"
       d="m 162.19914,949.32239 c 0,0 -25.62895,-0.30772 -34.29273,-28.8155 -8.6638,-28.50774 -2.66806,-22.16005 -2.66806,-22.16005 0,0 26.02517,1.24978 38.56251,12.60694 12.53733,11.35716 14.4572,44.91865 -1.60172,38.36861 z"
       id="path5180"
       inkscape:connector-curvature="0" />
    <path
       style="fill:#ffa56a;fill-opacity:1;fill-rule:evenodd;stroke:none;stroke-width:0.47873458px;stroke-linecap:butt;stroke-linejoin:miter;stroke-opacity:1"
       d="m 138.07321,910.75516 c 0,0 20.85008,31.39776 26.29273,30.09264 2.02839,5.21303 -16.19286,-33.09902 -26.29273,-30.09264 z"
       id="path5189"
       inkscape:connector-curvature="0"
       sodipodi:nodetypes="ccc" />
    <path
       sodipodi:nodetypes="ccc"
       inkscape:connector-curvature="0"
       id="path5191"
       d="m 186.45544,907.12876 c 0,0 22.3035,29.09377 18.65366,33.21411 4.32168,3.61968 -26.00928,-25.78173 -18.65366,-33.21411 z"
       style="fill:#d85900;fill-opacity:1;fill-rule:evenodd;stroke:none;stroke-width:0.47873458px;stroke-linecap:butt;stroke-linejoin:miter;stroke-opacity:1" />
    <path
       style="fill:#ffbd98;fill-opacity:1;fill-rule:evenodd;stroke:none;stroke-width:0.47873458px;stroke-linecap:butt;stroke-linejoin:miter;stroke-opacity:1"
       d="m 254.33508,895.49495 c 0,0 -25.83623,42.98758 -21.4266,47.82408 -4.96324,5.21142 23.72592,-39.97345 21.4266,-47.82408 z"
       id="path5193"
       inkscape:connector-curvature="0"
       sodipodi:nodetypes="ccc" />
    <path
       sodipodi:nodetypes="ccc"
       inkscape:connector-curvature="0"
       id="path5195"
       d="m 299.42738,903.37053 c 0,0 -14.79438,31.84597 -18.65627,30.52223 -1.43925,5.28742 11.48983,-33.57152 18.65627,-30.52223 z"
       style="fill:#d45500;fill-rule:evenodd;stroke:none;stroke-width:0.47873458px;stroke-linecap:butt;stroke-linejoin:miter;stroke-opacity:1" />
    <path
       style="fill:#ffbc35;fill-opacity:1;fill-rule:evenodd;stroke:none;stroke-width:0.47873458px;stroke-linecap:butt;stroke-linejoin:miter;stroke-opacity:1"
       d="m 325.14027,939.50576 c 0,0 26.867,-27.83102 24.17471,-32.82998 4.81871,-3.22233 -29.76779,23.6929 -24.17471,32.82998 z"
       id="path5197"
       inkscape:connector-curvature="0"
       sodipodi:nodetypes="ccc" />
    <text
       xml:space="preserve"
       style="font-style:normal;font-variant:normal;font-weight:normal;font-stretch:normal;font-size:80px;line-height:125%;font-family:Trattatello;-inkscape-font-specification:'Trattatello, Normal';text-align:start;letter-spacing:0px;word-spacing:0px;writing-mode:lr-tb;text-anchor:start;fill:#ffffff;fill-opacity:1;stroke:none;stroke-width:1px;stroke-linecap:butt;stroke-linejoin:miter;stroke-opacity:1"
       x="121.66816"
       y="790.72931"
       id="text5199"
       sodipodi:linespacing="125%"
       transform="matrix(0.99999936,0.00112988,-0.00112988,0.99999936,0,0)"><tspan
         sodipodi:role="line"
         id="tspan5201"
         x="121.66816"
         y="790.72931"
         style="font-style:normal;font-variant:normal;font-weight:normal;font-stretch:normal;font-size:80px;line-height:125%;font-family:Trattatello;-inkscape-font-specification:'Trattatello, Normal';text-align:start;writing-mode:lr-tb;text-anchor:start;fill:#ffffff">Pink</tspan></text>
    <text
       xml:space="preserve"
       style="font-style:normal;font-variant:normal;font-weight:normal;font-stretch:normal;font-size:80px;line-height:125%;font-family:Trattatello;-inkscape-font-specification:'Trattatello, Normal';text-align:start;letter-spacing:0px;word-spacing:0px;writing-mode:lr-tb;text-anchor:start;fill:#000000;fill-opacity:1;stroke:none;stroke-width:1px;stroke-linecap:butt;stroke-linejoin:miter;stroke-opacity:1"
       x="119.89366"
       y="871.88721"
       id="text5537"
       sodipodi:linespacing="125%"><tspan
         sodipodi:role="line"
         id="tspan5539"
         x="119.89366"
         y="871.88721"
         style="font-style:normal;font-variant:normal;font-weight:normal;font-stretch:normal;font-size:80px;line-height:125%;font-family:Trattatello;-inkscape-font-specification:'Trattatello, Normal';text-align:start;writing-mode:lr-tb;text-anchor:start;fill:#ffffff">Cauldron</tspan></text>
    <path
       style="fill:#d4aa00;fill-rule:evenodd;stroke:none;stroke-width:0.6703487px;stroke-linecap:butt;stroke-linejoin:miter;stroke-opacity:1"
       d="m 99.882962,684.33464 c 0,0 -13.644094,-27.98771 -13.376679,-52.56981 0.26745,-24.58217 11.622712,14.3475 11.622712,14.3475 0,0 7.326105,28.53231 5.115635,34.86266 -2.21048,6.33032 -3.361668,3.35965 -3.361668,3.35965 z"
       id="path5545"
       inkscape:connector-curvature="0" />
    <path
       style="fill:#ff8080;fill-rule:evenodd;stroke:none;stroke-width:1.28066885px;stroke-linecap:butt;stroke-linejoin:miter;stroke-opacity:1"
       d="m 92.021998,732.49688 c 0,0 -71.564702,-1.66755 -72.865879,31.6833 -1.301176,33.35086 67.661174,-28.34822 70.263526,23.3456 2.602353,51.69384 -1.301175,-53.36135 -1.301175,-53.36135"
       id="path4178"
       inkscape:connector-curvature="0" />
    <path
       inkscape:connector-curvature="0"
       id="path4180"
       d="m 381.02262,729.24831 c 0,0 69.71021,-26.38218 83.72508,9.65333 14.01487,36.03551 -77.33535,-7.79118 -60.15288,49.64898 17.18247,57.44015 -19.0983,-58.81774 -19.0983,-58.81774"
       style="fill:#ff8080;fill-rule:evenodd;stroke:none;stroke-width:1.28066885px;stroke-linecap:butt;stroke-linejoin:miter;stroke-opacity:1" />
    <path
       style="fill:#999999"
       d="m 227.11321,691.24473 c -7.36275,-3.57876 -15.93979,-11.45381 -18.99291,-17.43844 -4.84426,-9.49551 -5.49168,-20.38844 -1.84224,-30.99572 2.70848,-7.87234 5.5967,-12.0841 11.94833,-17.42372 7.09297,-5.96284 10.84752,-10.48579 14.20541,-17.11267 10.15653,-20.04408 4.51988,-39.36381 -13.3624,-45.79986 l -4.5411,-1.6344 4.83304,-0.0313 c 7.44273,-0.0482 13.40529,2.10812 18.18076,6.57501 5.86073,5.48203 8.02664,10.8997 8.48554,21.22517 0.71647,16.12097 -3.81732,27.36362 -16.20972,40.19605 -10.9682,11.35766 -15.5111,21.37151 -14.63678,32.26369 0.5626,7.00881 3.84647,13.11757 12.80592,23.82197 9.22259,11.01879 9.19127,11.24651 -0.87385,6.35423 z"
       id="path4273"
       inkscape:connector-curvature="0" />
    <path
       style="fill:#999999"
       d="m 243.11601,690.8438 c -3.65804,-5.62317 -5.11589,-9.62689 -5.11277,-14.04136 0.004,-5.68268 1.16353,-7.6027 10.26392,-16.996 8.79352,-9.07657 11.43095,-14.11014 11.43095,-21.81613 l 0,-5.67257 2.13154,3.13684 c 6.62715,9.75273 4.39656,18.43939 -7.767,30.24724 -6.94749,6.74432 -8.50566,10.09106 -9.07897,19.50048 -0.45861,7.52686 -0.52019,7.71287 -1.86767,5.6415 z"
       id="path4269"
       inkscape:connector-curvature="0" />
    <path
       inkscape:connector-curvature="0"
       id="path4277"
       d="m 259.06697,694.08508 c -1.68128,-5.54376 -1.81732,-9.05607 -0.47708,-12.31797 1.72524,-4.19899 3.37982,-5.1785 14.64611,-8.67069 10.88638,-3.37444 14.85171,-6.09495 17.18621,-11.79104 l 1.71848,-4.19304 1.02203,3.12702 c 3.17757,9.7222 -1.518,15.29728 -16.35012,19.41261 -8.4717,2.35056 -10.92736,4.23349 -14.3084,10.97131 -2.70459,5.38977 -2.81792,5.50391 -3.43723,3.4618 z"
       style="fill:#999999" />
    <path
       inkscape:connector-curvature="0"
       id="path4279"
       d="m 195.01173,692.50215 c 2.444,-6.24725 3.06118,-10.4632 2.1645,-14.78564 -1.15427,-5.56422 -2.67847,-7.20976 -13.49195,-14.56638 -10.44884,-7.10856 -14.05062,-11.50402 -15.61056,-19.05047 l -1.14831,-5.55513 -1.45241,3.50339 c -4.51568,10.89236 -0.57282,18.94763 13.72919,28.04873 8.16892,5.19829 10.37231,8.16032 12.83852,17.25888 1.97279,7.27819 2.07075,7.44788 2.97102,5.14662 z"
       style="fill:#999999" />
  </g>
</svg>
